<?xml version="1.0" standalone="no"?>
<!DOCTYPE svg PUBLIC "-//W3C//DTD SVG 20010904//EN"
 "http://www.w3.org/TR/2001/REC-SVG-20010904/DTD/svg10.dtd">
<svg version="1.0" xmlns="http://www.w3.org/2000/svg"
 width="2160.000000pt" height="480.000000pt" viewBox="0 0 2160.000000 480.000000"
 preserveAspectRatio="xMidYMid meet">

<g transform="translate(0.000000,480.000000) scale(0.100000,-0.100000)"
fill="#000000" stroke="none">
<path d="M6766 3139 c-3 -8 -23 -66 -45 -130 l-41 -116 20 -41 c19 -39 210
-546 210 -557 0 -3 -94 -5 -210 -5 -175 0 -210 2 -210 14 0 8 30 99 66 203 72
205 80 231 71 223 -7 -7 -79 -207 -148 -409 -53 -160 -69 -188 -69 -125 0 61
-27 128 -72 179 -46 52 -76 70 -172 100 l-69 22 39 13 c152 49 234 146 234
276 0 127 -91 240 -232 286 -66 22 -296 36 -478 30 l-85 -3 3 -619 2 -620 -37
0 -38 0 -54 143 c-29 78 -77 207 -106 287 -29 80 -69 186 -88 235 -50 124
-174 455 -204 543 -14 39 -28 72 -33 72 -4 0 -24 -46 -45 -102 -21 -57 -52
-143 -70 -193 -18 -49 -83 -225 -145 -390 -61 -165 -134 -358 -160 -430 -27
-71 -52 -138 -55 -147 -6 -15 -20 -18 -93 -18 -47 0 -83 -3 -79 -6 9 -10 367
-12 367 -2 0 4 -42 8 -94 8 l-94 0 38 103 c42 115 97 261 111 295 l9 22 227
-2 228 -3 19 -55 c10 -30 43 -120 73 -200 29 -79 53 -148 53 -152 0 -4 -32 -8
-72 -8 -39 0 -68 -3 -65 -6 9 -9 747 -11 747 -1 0 4 -36 7 -80 7 l-80 0 0 316
0 316 163 -3 c155 -4 164 -5 208 -31 77 -45 106 -137 95 -303 -8 -128 7 -184
68 -252 52 -58 115 -83 207 -83 68 0 115 17 144 51 l20 24 -20 -17 c-36 -30
-96 -50 -130 -44 -36 7 -79 47 -95 91 -6 17 -11 62 -11 100 1 66 10 100 60
228 l11 27 217 -2 217 -3 73 -195 c39 -107 72 -201 72 -207 1 -9 -20 -13 -71
-13 -39 0 -69 -2 -66 -5 9 -9 518 -11 518 -2 0 4 -25 7 -55 7 l-55 0 0 602 c0
331 4 598 8 593 10 -11 70 -173 191 -515 43 -124 108 -304 144 -400 36 -96 76
-205 88 -242 13 -38 27 -68 30 -68 4 0 13 26 22 58 8 31 29 95 46 142 16 46
26 87 21 90 -9 6 -56 127 -172 450 -45 124 -106 295 -137 380 l-56 155 -95 -2
c-52 -1 -97 -3 -100 -3 -3 0 -5 -278 -5 -617 l0 -618 -31 -3 c-28 -3 -31 0
-43 40 -7 24 -37 104 -66 178 -29 74 -69 183 -89 242 -20 59 -57 160 -82 225
-25 65 -65 172 -89 238 -83 228 -131 355 -138 361 -4 4 -9 1 -11 -7z m-709
-77 c95 -50 141 -164 130 -326 -12 -194 -74 -240 -318 -234 l-114 3 -3 100
c-2 55 0 187 3 293 l7 194 127 -4 c106 -3 133 -7 168 -26z m-1061 -333 c30
-79 63 -164 71 -189 8 -25 31 -84 49 -131 19 -48 34 -94 34 -103 0 -14 -23
-16 -215 -16 -182 0 -215 2 -215 15 0 8 32 99 71 202 39 103 82 217 94 253 34
98 45 123 50 118 3 -2 30 -69 61 -149z"/>
<path d="M8848 2947 c-113 -325 -317 -907 -350 -999 l-32 -88 -38 0 -38 0 0
615 0 615 88 2 87 1 -100 6 c-55 4 -137 4 -183 1 l-85 -5 -54 -169 c-29 -93
-52 -171 -49 -173 5 -6 96 272 96 293 0 8 5 14 10 14 7 0 10 -207 10 -600 l0
-600 -87 0 c-47 0 -84 -2 -81 -5 8 -8 587 -9 595 -2 3 4 -31 7 -76 7 -70 0
-82 2 -77 15 3 8 31 88 61 178 31 89 64 178 72 197 9 19 17 40 17 45 2 20 201
585 206 585 4 0 25 -53 49 -117 87 -236 171 -468 171 -470 0 -2 -93 -4 -207
-5 l-208 -2 209 -6 210 -5 17 -45 c51 -132 129 -348 129 -358 0 -8 -23 -12
-72 -12 -39 0 -69 -3 -65 -6 9 -9 704 -13 822 -4 l100 7 -87 1 -88 2 0 616 0
617 83 -5 c54 -4 101 -13 135 -28 99 -43 174 -157 190 -290 5 -39 9 0 13 135
3 105 5 191 4 193 -1 1 -233 3 -516 3 l-514 0 -1 -218 c-1 -120 0 -207 2 -193
2 14 9 59 15 100 14 95 36 147 88 203 57 62 124 89 234 95 l87 4 0 -616 0
-617 -117 3 -118 3 -37 105 c-21 58 -58 157 -83 220 -24 63 -66 178 -93 255
-27 77 -66 183 -87 235 -21 52 -69 176 -105 275 -37 98 -71 180 -76 182 -5 2
-39 -84 -76 -190z"/>
<path d="M5447 3093 c18 -2 50 -2 70 0 21 2 7 4 -32 4 -38 0 -55 -2 -38 -4z"/>
<path d="M7208 3093 c17 -2 47 -2 65 0 17 2 3 4 -33 4 -36 0 -50 -2 -32 -4z"/>
<path d="M6652 2813 c-15 -48 -8 -55 8 -8 7 20 10 38 8 41 -3 2 -10 -13 -16
-33z"/>
<path d="M7977 2418 c-48 -145 -87 -270 -87 -278 0 -8 41 107 90 255 49 149
89 273 87 278 -1 4 -41 -111 -90 -255z"/>
<path d="M6200 1850 c49 -5 89 -4 95 1 5 5 -29 8 -85 8 l-95 -2 85 -7z"/>
</g>
</svg>
